<?xml version="1.0" encoding="UTF-8"?>
<!-- Created with Inkscape (http://www.inkscape.org/) -->
<svg width="1753.3" height="2144" version="1.1" viewBox="0 0 1753.3 2144" xmlns="http://www.w3.org/2000/svg">
 <path d="m542.86 672.86c-12.702 14.778-44.926 21.202-62.667 29.333-43.892 20.116-86.048 42.761-126.67 68.923-128.2 82.573-208.88 207.05-245.5 353.74-10.773 43.146-16.085 88.086-22.864 132-8.9967 58.274-19.161 116.39-28.2 174.67-16.485 106.29-40.467 212.98-51.209 320-4.5813 45.642-7.4378 95.809 12.186 138.67 29.495 64.415 99.08 105.11 159.59 136.34 137.96 71.204 286.32 102.58 440 113.11 67.819 4.6442 136.17 2.9031 204-0.067 200.2-8.7663 398.79-41.811 557.33-174.39 26.763-22.38 53.03-46.638 75.181-73.661 100.51-122.61 119.12-287.44 134.38-440 10.528-105.3 13.79-211.63 9.1605-317.33-2.632-60.101-5.2827-120.95-24.526-178.67-27.728-83.167-92.801-164.89-163.53-215.43-46.398-33.158-100.67-38.906-153.33-56.57v-2.6666c18.221-3.3828 37.541-1.1362 56-2.8931 65.498-6.2337 130.85-13.56 196-23.204 44.656-6.6095 91.77-13.888 132-35.648 23.854-12.903 44.386-29.493 61.88-50.255 13.549-16.08 24.576-34.201 33.195-53.333 54.369-120.69-43.218-226.97-133.74-294.84-72.307-54.207-154.53-96.091-237.33-131.63-52.831-22.675-106.61-44.399-162.67-57.688-128.25-30.403-267.93-36.271-398.67-23.619-67.53 6.535-132.99 22.162-198.67 38.58-55.422 13.856-113.51 27.66-165.33 52.287-80.413 38.217-154.42 95.762-221.33 153.67-62.41 54.014-153.05 130.06-130.82 223.23 12.747 53.436 59.947 90.283 106.82 113.66 39.996 19.948 84.842 30.712 128 41.502 72.793 18.198 146.92 32.56 221.33 42.169m1062.7-342.67c-33.691-0.6989-72.062-22.031-104-32.44-54.721-17.835-111.43-30.127-168-40.327-85.297-15.379-169.9-16.848-256-20.618-82.063-3.5938-165.93-3.4894-248 0.1048-49.818 2.1817-99.686 4.1678-149.33 9.5021-68.703 7.3815-136.98 20.738-205.33 30.808-34.316 5.0554-68.477 11.265-102.67 17.079-12.716 2.1624-30.121 8.8298-42.667 5.2253 9.4576-17.436 39.282-31.036 56-41.067 57.957-34.774 116.71-52.112 181.33-69.803 63.117-17.276 125.53-35.313 190.67-43.418 106.67-13.272 218.73-11.93 325.33 1.3333 78.341 9.7472 156.46 30.111 233.33 47.779 79.116 18.185 151.92 44.551 222.67 84.8 16.917 9.624 33.714 20.257 49.333 31.881 6.9725 5.1884 14.894 10.47 17.333 19.16m-34.667 28c-50.38 3.9764-101.91 4.6561-152 11.233-18.894 2.4807-50.948-1.7389-43.494 27.433 1.4595 5.7118 5.3366 10.146 11.495 10.403 18.402 0.7706 40.268-6.6863 58.666-9.2428 52.672-7.3192 105.89-5.7809 158.67-1.1595 15.07 1.3197 46.479 0.466 56.464 13.473 6.7822 8.8348 7.9762 27.699-5.7984 30.222-17.418 3.1911-38.382-1.5383-55.999-2.3098-39.542-1.7316-79.144-1.7307-118.67 0-14.736 0.6454-29.29 3.0941-41.332 11.968-3.6779 2.7103-11.97 8.5188-9.1524 14.12 5.3143 10.565 35.552 5.859 45.151 5.859 45.412 0 90.61-1.3333 136-1.3333 13.71 0 27.648-0.734 41.333 0.058 5.8879 0.3407 11.527 2.5858 11.73 9.2962 0.4237 13.985-15.611 29.868-25.064 38.42-30.644 27.723-70.275 40.902-109.33 51.834-52.099 14.583-107.72 19.256-161.33 24.617-78.454 7.8443-157.11 14.411-236 14.442-30.568 0.012-61.326 1.3333-92 1.3333-10.595 0-28.978 2.6779-38.382-2.9054-11.292-6.7041-5.6183-40.308-5.6183-51.761v-96c0-16.89 2.4771-35.773-2.6667-52-12.478 6.7684-18.1 23.18-22.208 36-11.169 34.861-11.125 73.121-11.125 109.33 0 12.508-1.3125 24.82-1.3334 37.333-0.01 5.3065 0.4273 11.425-4.3045 15.01-5.6187 4.2573-16.878 3.9759-23.695 5.0968-8.4349 1.3869-24.054 6.5799-31.922 2.3198-11.929-6.4593-7.7369-41.642-6.178-53.094 1.4847-10.906 11.772-33.169-4.568-35.588-20.532-3.0407-17.506 23.908-19.046 36.922-1.3779 11.641 1.2765 36.96-6.0967 46.243-3.1368 3.9491-9.0549 3.0886-13.523 3.0905-11.349 0.01-30.705 3.7497-41.136-0.8045-6.6934-2.9224-3.9067-13.661-3.2449-19.196 2.2267-18.619 3.1283-37.373 5.3333-56 7.2908-61.593 9.9682-123.75 17.333-185.33 1.743-14.574 3.1896-29.366 4.2624-44 0.47453-6.4735-0.4108-16.927 3.7747-22.295 5.3934-6.9178 21.642-6.2947 29.677-7.5854 24.402-3.9195 48.871-7.5666 73.333-11.092 9.1986-1.3255 21.238-5.6229 29.029 1.5308 4.835 4.4397 4.3022 10.773 4.3046 16.775 0.01 16.971-7.3728 61.914 22.66 54.243 7.7739-1.9856 8.437-10.168 9.1142-16.91 1.2188-12.133-1.8565-48.846 13.564-51.695 37.263-6.8869 79.743-0.6696 117.33 0.9764 104.39 4.5716 211.15 18.486 312 47.106 31.692 8.9943 63.505 17.506 94.667 28.286 8.4004 2.9059 27.621 5.4355 29.333 15.327m-1273.3 186.67v-4c22.602-5.5687 46.387-4.22 69.333-7.2326 14.031-1.8421 28.532-2.7983 42.667-3.4855 10.71-0.5207 32.53 0.8459 41.136-6.0338 9.1054-7.2792 3.8778-30.574-7.8035-32.384-15.203-2.3553-34.186 4.1847-49.332 6.2952-36.949 5.1486-73.763 11.273-110.67 16.736-21.037 3.114-52.418 16.661-54.42-13.895-1.0587-16.162 23.071-15.299 34.42-16.971 39.136-5.7654 78.16-12.361 117.33-17.869 13.303-1.8708 48.972-3.4596 37.095-26.472-6.8176-13.209-26.996-6.2171-38.428-4.3487-38.154 6.2365-76.508 11.293-114.67 17.554-15.567 2.5544-46.976 14.936-45.213-9.2262 1.7838-24.442 28.972-22.735 47.88-25.333 52.106-7.16 103.92-16.505 156-23.826 16.172-2.2731 65.141-0.5533 57.898-26.84-5.0623-18.374-32.879-8.4556-45.898-6.6667-48.047 6.6022-96.169 13.864-144 21.885-14.179 2.3776-28.433 4.4546-42.667 6.4764-4.275 0.6072-13.081 2.5779-12.615-4.4393 2.9422-44.3 70.321-46.712 101.95-52.255 112.18-19.662 224.06-41.683 337.33-54.4 30.922-3.4716 63.551-7.7584 94.667-6.5462 7.095 0.2764 26.325-1.3113 31.01 4.3703 6.7039 8.1292-0.12329 33.668-1.2962 43.576-4.5055 38.062-7.1278 76.502-10.821 114.67-4.083 42.192-6.8591 84.565-11.846 126.67-1.3667 11.54 1.5919 34.751-7.5731 43.237-6.7937 6.29-21.577 3.43-30.141 3.43-26.701 0-53.397-1.0117-80-1.3282-82.075-0.976-166.54-13.74-246.67-31.439-38.213-8.4403-78.081-15.786-114.67-29.899m401.33-239.29c-36.454 8.424-30.619 65.093 9.3333 55.922 38.211-8.7715 32.423-65.571-9.3333-55.922m468 85.247c-14.437 2.6027-28.51 12.141-34.028 26.047-8.7942 22.163 14.394 32.162 32.694 28.71 13.998-2.6408 28.492-13.328 32.484-27.376 5.7224-20.139-13.748-30.518-31.15-27.381m-470.67 12.005c-15.885 2.6689-29.678 15.331-32.71 31.375-3.229 17.087 7.1374 33.513 26.043 30.228 16.312-2.8338 29.808-17.973 31.754-34.228 1.8216-15.213-8.5013-30.162-25.087-27.375m192 61.584c-18.555 5.5953-9.4886 31.911 7.9979 26.182 17.93-5.8742 9.3152-31.403-7.9979-26.182m274.67 42.497c-34.916 8.0128-39.356 58.7 2.6667 49.054 35.136-8.0656 39.717-58.78-2.6667-49.054m-461.33 9.2511c-14.565 2.7288-26.496 15.52-28.899 30.043-2.7002 16.321 9.978 28.962 26.232 26.232 13.862-2.3274 26.468-15.052 28.895-28.899 2.9448-16.801-8.7489-30.651-26.228-27.376m534.67 1422c6.219-29.732 25.628-56.272 34.633-85.333 13.416-43.299 14.701-92.399 14.701-137.33 0-17.786-0.1961-35.678-2.286-53.333-1.1609-9.8073 0.02-18.225-12.381-17.333 0 19.462 1.4111 39.475-2.4105 58.667-7.3637 36.979-25.018 73.278-36.222 109.33-11.491 36.978-21.806 74.44-31.199 112-10.706 42.812-33.319 74.217-74.169 92.922-11.48 5.2562-24.672 10.841-37.333 12.18-4.9286 0.5213-12.134 0.987-13.131-5.2469-2.2051-13.796 12.321-33.204 18.119-45.188 15.563-32.164 28.388-66.057 39.452-100 29.01-89.005 35.56-183.01 35.56-276 0-33.318-1.5289-70.416-15.252-101.33-2.8839-6.4975-13.982-28.188-23.109-25.944-4.2816 1.0528-3.6446 6.7245-3.3272 9.9445 1.0081 10.228 2.2001 20.482 3.5864 30.667 5.9367 43.613 3.4521 88.222 3.4352 132-0.039 101.32-23.297 211.66-64.926 304-9.9613 22.096-20.784 43.447-33.674 64-5.2003 8.2915-10.558 19.541-18.858 25.141-9.173 6.1884-23.899 4.8639-34.542 5.644-20.906 1.5324-41.752 3.8685-62.667 5.3343-19.552 1.3704-39.076 4.5155-58.667 5.2284-6.6108 0.2407-14.819 3.0682-21.188 0.3292-10.497-4.5137-2.3006-20.864-0.14502-28.344 8.3009-28.804 16.897-57.581 24.169-86.667 26.621-106.49 55.831-220.29 55.831-330.67 0-28.561-3.0686-61.469-22.672-83.98-4.6414-5.3299-14.511-17.629-22.511-17.016-6.2361 0.4772-4.1576 9.1883-3.2767 12.997 3.3351 14.419 9.0122 28.184 12.3 42.667 4.2596 18.762 2.8262 38.209 2.8262 57.333 0 44.441-3.9428 91.039-12.886 134.67-15.05 73.418-35.259 143.14-65.215 212-10.957 25.186-23.95 63.863-47.252 80.261-8.4577 5.9521-19.718 3.6538-29.314 2.6264-20.02-2.1434-40.025-3.9166-60-6.5123-66.48-8.6392-133.52-17.615-198.67-33.878-21.533-5.3749-49.634-7.4048-69.255-17.923-11.357-6.0876 1.8178-21.417 6.0597-28.575 16.384-27.647 31.106-56.298 44.821-85.333 34.191-72.384 60.632-151.3 72.069-230.67 5.0202-34.839 9.504-71.504 5.3529-106.67-3.22-27.275-2.7222-65.395-20.401-87.999-5.5042-7.0375-15.579-18.648-25.286-19.283-11.597-0.7591-0.76746 23.189 0.74076 28.615 8.9775 32.297 13.899 66.524 13.899 100 0 114.7-39.005 224.2-101.05 320-14.696 22.691-30.581 44.425-47.719 65.333-7.3542 8.972-15.441 19.346-28.566 16.076-16.138-4.021-33.944-17.694-48-26.496-5.4664-3.423-11.416-7.797-11.501-14.914-0.12467-10.421 11.37-21.178 16.833-29.333 15.21-22.704 29.962-45.538 43.435-69.333 39.524-69.803 78.251-151.82 81.952-233.33 1.4507-31.956 0.2126-63.321-12.622-93.333-5.7839-13.525-17.804-30.132-32.757-34.596-9.4904-2.8327-8.0008 9.1279-6.394 14.596 5.7872 19.694 12.742 38.382 16.536 58.667 18.415 98.452-34.05 197.27-81.189 280-13.414 23.544-28.289 45.948-44.013 68-5.7746 8.0988-13.496 20.472-24.945 13.696-22.886-13.543-52.152-36.216-66.048-59.03-14.044-23.057-14.945-51.183-16.738-77.333-4.6112-67.273 14.396-129.11 26.22-194.67 14.09-78.12 21.539-157.63 34.681-236 9.9135-59.116 14.494-120.65 29.73-178.67 24.659-93.904 75.144-188.67 142.87-258.66 53.593-55.381 125.18-84.081 195.95-110.25 60.861-22.502 124.16-32.423 188-42.324 55.995-8.6843 112.7-18.235 169.33-20.715 59.633-2.6115 119.47 3.1369 178.67 9.0556 45.288 4.5282 89.868 9.4764 133.33 23.786 60.768 20.006 124.15 52.542 166.27 101.77 24.086 28.154 39.014 66.509 50.622 101.33 23.933 71.798 38.284 148.1 36.425 224-1.3077 53.382-18.682 105.59-23.754 158.67-8.5798 89.783-10.197 180.51-27.96 269.33-12.232 61.169-36.14 117.74-63.937 173.33-20.844 41.688-40.654 79.195-77.663 108.8-12.719 10.174-25.903 19.75-38.667 29.87-6.9679 5.5253-13.733 12.866-22.667 14.663m-280-1146.1c-20.15 2.6458-41.023 1.695-61.333 3.6605-60.509 5.8555-122.55 15.855-180 36.185-32.415 11.47-65.358 26.53-90.662 50.374-50.173 47.281-47.452 135.72 15.995 170.14 65.716 35.647 153.29 32.675 225.33 24.031 67.227-8.0662 137.55-20.931 198.67-51.289 26.654-13.24 52.556-28.416 71.113-52.33 32.735-42.185 22.233-108.9-19.113-141.78-32.107-25.536-72.193-33.262-112-37.114-15.188-1.4697-32.872-3.8608-48-1.8745m-201.33 220.77c3.2372-10.941 21.319-17.131 30.667-22.466 27.271-15.566 59.768-29.608 84-49.534-12.897-3.0618-28.466 0.7784-41.333 3.1852-32.574 6.0928-63.682 16.749-92 34.235-20.887 12.897-38.677 38.864-65.333 28.633-7.5475-2.8968-14.705-6.825-21.333-11.438-21.07-14.664-20.536-33.547-11.462-55.948 12.182-30.071 41.222-50.858 70.129-63.434 82.221-35.771 174.43-39.232 262.67-39.232 35.229 0 79.329-2.8689 112 12.431 31.871 14.925 40.795 55.719 23.396 84.902-13.035 21.864-36.225 37.142-58.063 49.143-64.139 35.25-139.18 39.373-210.67 36.243-27.071-1.1854-56.268 0.1107-82.667-6.7192m149.33-83.284c-18.371 4.231-13.913 35.382 5.3271 30.159 15.028-4.0797 12.589-34.286-5.3271-30.159m336.02 70.714c-12.532 3.6902-13.861 44.965 3.9794 39.704 25.202-7.4318 26.424-48.657-3.9794-39.704m-754.69 121.25c-29.731 4.4121-13.151 48.809 13.333 43.998 29.102-5.2864 12.023-47.761-13.333-43.998m621.33 16.313c-21.361 8.169-10.213 41.58 11.999 34.073 25.652-8.6696 10.501-42.677-11.999-34.073m-286.67 32.962c-17.076 3.0173-45.218 14.964-41.99 36.715 3.2511 21.906 33.402 22.826 49.99 19.888 7.4454-1.3189 14.769-3.9486 21.333-7.7274 3.8881-2.2382 7.4295-4.9775 10.541-8.2139 26.982-28.064-16.185-44.848-39.875-40.662m-174.67 16.253c-23.122 7.1398-12.049 42.486 10.667 35.39 22.779-7.1154 11.842-42.34-10.667-35.39z" fill="#030303"/>
</svg>
