<?xml version="1.0" encoding="UTF-8" standalone="no"?>
<svg
   width="99"
   height="122"
   version="1.1"
   id="svg8"
   sodipodi:docname="tzib-glyphs.svg"
   inkscape:version="1.4 (e7c3feb100, 2024-10-09)"
   xmlns:inkscape="http://www.inkscape.org/namespaces/inkscape"
   xmlns:sodipodi="http://sodipodi.sourceforge.net/DTD/sodipodi-0.dtd"
   xmlns="http://www.w3.org/2000/svg"
   xmlns:svg="http://www.w3.org/2000/svg">
  <defs
     id="defs8" />
  <sodipodi:namedview
     id="namedview8"
     pagecolor="#ffffff"
     bordercolor="#666666"
     borderopacity="1.0"
     inkscape:showpageshadow="2"
     inkscape:pageopacity="0.0"
     inkscape:pagecheckerboard="0"
     inkscape:deskcolor="#d1d1d1"
     inkscape:zoom="2.7540984"
     inkscape:cx="49.925595"
     inkscape:cy="61"
     inkscape:window-width="1430"
     inkscape:window-height="1886"
     inkscape:window-x="0"
     inkscape:window-y="0"
     inkscape:window-maximized="0"
     inkscape:current-layer="svg8" />
  <path
     style="fill:#121212; stroke:none;"
     d="M31 39L29.3287 40.1312L28.841 40.375L27.8395 40.9444C26.2147 41.7692 24.5617 42.5335 23 43.4776C21.2557 44.5321 19.6322 45.7464 18.0401 47.0154C16.7931 48.0094 15.5877 49.0946 14.5293 50.2894C13.2611 51.721 12.2349 53.3268 11.3241 55.0039C10.2844 56.9181 9.42844 58.9312 8.74923 61C8.10488 62.9626 7.63988 64.9814 7.21065 67C6.85832 68.6569 6.52357 70.3224 6.28549 72L5.7037 77C5.39173 79.0207 4.85227 80.9943 4.46296 83C4.2061 84.3234 4.10261 85.6631 3.94985 87L3.71759 89L2.75386 95L2.30093 98L2.20988 99L2.22839 101L2.3588 102L2.57639 102.999L3.3179 104.985L4.51389 106.907L5.27855 107.815L6.13349 108.671L8.01852 110.2L10.0008 111.471L11 112.015L12 112.507L14 113.384L16 114.188L18 114.946C19.3193 115.424 20.6484 115.875 22 116.254C23.3206 116.624 24.6577 116.914 26 117.192C27.3206 117.466 28.6576 117.695 30 117.829C31.9926 118.029 34.0003 117.997 36 118L43 118L47 117.999C48.333 117.995 49.6693 118.002 51 117.91C52.6809 117.795 54.3344 117.511 56 117.271C57.6694 117.03 59.3524 116.857 61 116.486C62.0168 116.257 63.0065 115.952 64 115.64L65 115.3L67 114.535C68.0202 114.09 69.0233 113.632 70 113.096C71.0292 112.531 72.0079 111.899 72.9853 111.25L73.9606 110.56L75.8295 109.1L77.5602 107.535L79.1806 105.826C80.4826 104.341 81.6537 102.743 82.5864 100.999C83.2672 99.7264 83.7986 98.3773 84.2253 97C84.6323 95.6863 84.9059 94.3401 85.2068 93L85.8804 90C86.1849 88.6721 86.5018 87.3492 86.7006 86C86.9451 84.3412 86.9875 82.6654 87.1659 81L87.8302 76C88.02 74.0056 87.9976 72.001 88 70L87.9961 67C87.9873 65.9998 87.9792 64.9984 87.9105 64C87.7948 62.3201 87.5334 60.6574 87.2423 59C86.9442 57.303 86.6413 55.6114 86.0093 54C85.3123 52.223 84.3248 50.5497 83.2106 49.0039C81.0925 46.0651 78.4102 43.4248 75.0247 42.0093L73.1605 41.3951L72.159 41.2114L71.6713 41.1142L70 41L71.6713 40.3997L72.159 40.3187L73.1605 40.071L75.0247 39.7485C76.3455 39.5259 77.668 39.3111 79 39.1659C80.6644 38.9845 82.3488 38.9702 84 38.6721L86 38.2106L87.9961 37.517L88.9846 37.0802L89.9568 36.5826L90.8951 36.0054L92.6057 34.6065L93.9907 32.8951L94.5424 31.9568L95.3318 29.9961L95.5625 28.9992L95.6813 28L95.5625 26L94.9869 24L93.9907 22L93.3472 21.0008L91.7863 19.0147C90.0854 17.0481 88.1104 15.3026 86 13.7886C84.4173 12.6532 82.723 11.6879 81 10.7847C79.3684 9.92947 77.6995 9.16238 76 8.45293C74.6927 7.90721 73.3415 7.45663 72 7.00386C70.6761 6.55702 69.3465 6.11991 68 5.74537C66.6786 5.37781 65.3424 5.08627 64 4.80787C62.6794 4.534 61.3424 4.30484 60 4.17052C58.3377 4.00421 56.6684 4.01136 55 4.00077L51 4L47 4.00077C45.6671 4.00934 44.3303 3.99261 43 4.09337C41.9875 4.17006 40.9947 4.31108 40 4.51466C38.988 4.72179 37.9941 5.01722 37 5.29475L34 6.1412C32.3227 6.62146 30.656 7.12479 29 7.67439C27.6426 8.12486 26.2908 8.61548 25 9.23457C23.609 9.90172 22.2967 10.7063 21 11.5386C19.6384 12.4125 18.3014 13.3248 17 14.2863C15.9823 15.0382 14.9823 15.8166 14.0039 16.6188C13.0117 17.4323 12.0114 18.2564 11.1088 19.1705L9.43364 21.0394L8.74228 22.0147L7.74306 24.0008L7.24769 26L7.19213 27.9992L7.33333 28.9961L8.02855 30.956L8.60339 31.892L10.1481 33.581L11.0586 34.2971L12.0193 34.9113L14.0008 35.8665C14.9694 36.2727 15.9911 36.5595 17 36.8441C18.3238 37.2177 19.6624 37.5494 21 37.8696C22.6462 38.2636 24.29 38.6403 25.9753 38.8264C27.6451 39.0108 29.3234 38.9861 31 39z"
     id="path2" />
  <path
     style="fill:#fafafa; stroke:none;"
     d="M20 19L21.0864 19.3981L21.517 19.3519L22.321 19.375L23.1381 19.2423L24.0586 19.0818L26.0046 18.6613L28 18.2855L30 18.0008L33 17.5795C34.3319 17.3823 35.6555 17.1822 37 17.0895C38.9973 16.9518 41.0027 17.048 43 16.9105C45.3475 16.7488 47.6525 16.2503 50 16.0895C50.9984 16.0211 51.9997 16.0127 53 16.0039L56 16L60 16.0039C61.0002 16.0127 62.0016 16.0211 63 16.0895C64.6811 16.2047 66.334 16.4911 68 16.7292C69.6674 16.9674 71.3439 17.1476 73 17.4599C74.0071 17.6498 75.0049 17.8866 76 18.1304C77.6708 18.5398 79.3379 18.963 80.9954 19.4236L83.8395 20.2454L84.841 20.5054L85.3287 20.6466L87 21L85.9136 19.7546L85.483 19.4568L84.679 18.8117C83.5039 18.0472 82.2628 17.391 80.9954 16.7948C80.0198 16.3358 79.0226 15.8926 78 15.5471L76 14.9128L73 14.1273L69 13.1304L66 12.4491C64.6731 12.1827 63.3349 11.9753 62 11.7539C60.6714 11.5334 59.3414 11.2996 58 11.1698C55.6762 10.9449 53.3315 11 51 11C48.6696 11 46.3222 10.9382 44 11.1705C42.9942 11.2711 41.9927 11.4267 41 11.6157C39.6598 11.8709 38.3241 12.1453 37 12.4753L34 13.294C31.6501 13.9526 29.2768 14.5715 27.0015 15.463C25.6926 15.9758 24.4178 16.5722 23.1605 17.1998L22.159 17.7454L21.6713 17.99L20 19M15 25L16.6713 24.5525C18.1088 24.2045 19.5526 23.9033 21.0031 23.6157L22.9753 23.2894L23.9552 23.1705C24.7413 23.0757 25.5377 23.04 26.3287 23.0154L28 23L26.3287 24.0177L24.8395 24.5648C22.9306 25.0606 20.9579 25.2355 19.0247 25.6088L17.1605 25.9907L16.159 26.2693L15.6713 26.3735L14 27L15.0864 27.5432L15.517 27.5532L16.321 27.6698L18.0571 27.5417L19.9799 27.2824L21.8395 27.0895L23.3287 27.0154L25 27L23.3287 28.017L21.8395 28.554L19.9799 28.9159L17.1605 29.2847L15.6713 29.5679L14 30L15.0864 30.581L15.517 30.6273L16.321 30.8002L18.0586 30.7963C19.3659 30.6799 20.6553 30.4589 21.9552 30.2855L23.841 30.0887L24.3287 30.0417L26 30L26 32L20 32L20 34L21.6713 34.098L23.1605 34.2901C24.7815 34.5512 26.388 34.8863 28 35.196C29.3263 35.4508 30.6551 35.695 32 35.8295C33.6604 35.9955 35.3288 35.991 36.9954 35.9992L43 36L43.4321 34.3287L43.7114 32.8395L43.9244 30.9753L44.1659 28L44.8302 23.0247C44.9944 21.3507 44.9861 19.6797 45 18C43.653 18.0037 42.3017 17.9824 40.9552 18.0394C39.9643 18.0813 38.9821 18.1608 37.9985 18.2894C35.6461 18.5968 33.3409 19.1857 31 19.5617L29 19.8441L25 20.2855C23.9941 20.4286 22.9979 20.6154 22.0008 20.8086L21.0046 21.0193L20.0193 21.2531L18.1489 21.8542L16.6103 22.6983L15.6543 23.6296L15 25M47 18L46.5679 19.6713L46.4784 20.159L46.2894 21.1605L46.0903 23.0247C45.9134 25.3436 46.0715 27.6753 45.9105 29.9954L45.7137 31.9552C45.5118 33.3109 45.2502 34.6525 45 36L46.4267 35.662L47.4182 35.0154L48.3048 33.8441L48.5332 33.5116L49 32L49.5849 33.4938L49.6528 34L50 36L51.6991 35.5278L52.3565 35.1111L53.2037 33.7824L53.7176 31.9861L53.9398 30.1111L53.9954 28.6019L54 27L54.5849 28.6713L54.642 29.1574L54.8395 30.1559L54.966 31.9799L55 36L65 36L68 35.9961C69.0003 35.9873 70.0016 35.9789 71 35.9105C72.679 35.7955 74.3355 35.5183 76 35.2816L78 35.0502L81 34.7029C82.0137 34.5445 83.005 34.3232 83.9992 34.0718L85.9807 33.4383L86.9414 33.0347L87.8511 32.5826L89.3897 31.5077L90.3457 30.4421L91 29L79 29L80.6713 27.983L82.1605 27.4498L84.0231 27.1242C85.0019 27.0431 85.9743 27.0263 86.9552 27.0046L91 27L91 25L76 25L77.6713 23.983L79.159 23.4498L81 23.1242L82.841 23.0177L86 23L84.9136 22.2168L84.483 22.0432L83.679 21.6458L81.9414 21.0301C80.967 20.7358 79.9899 20.4701 78.9992 20.2361C77.3486 19.8463 75.6757 19.534 74 19.2747L70 18.7292C68.3349 18.4871 66.6806 18.2048 65 18.0895C63.6776 17.9988 62.3494 18.0037 61.0247 18.0008L56 18L56 22L54 22L54 18L47 18z"
     id="path3" />
  <path
     style="fill:#121212; stroke:none;"
     d="M39 20L38 21L38 23L39.3889 22.8889L39.7222 22.6667L40.3333 22.3333L40.8889 21.3889L41 20L39 20M39 25L38 26L38 28L39.6528 27.1944L40.091 27.0108L41 26L39 25M63 28L64.3889 27.6389L65.3333 26.7222L65.6389 26.3889L66 25L64.6111 25.1111L64.2778 25.3333L63.6667 25.6667L63.1111 26.6111L63 28M49.6667 29.3333L49.6667 29.6667L50.3333 29.6667L50.3333 29.3333L49.6667 29.3333M39 31L38 32L38 34L39.3889 33.8889L39.7222 33.6667L40.3333 33.3333L40.8889 32.3889L41 31L39 31M63 31L63 33L66 33L66 31L63 31z"
     id="path4" />
  <path
     style="fill:#fafafa; stroke:none;"
     d="M21 82L22.1998 83.6713L22.4383 84.159L22.9715 85.1605L23.5502 87.0247L23.6829 88.0046L23.6273 90L23.2106 92C22.9056 93.0162 22.5598 94.0078 22.1844 95C21.543 96.6954 20.845 98.3837 20.0193 99.9985C19.5022 101.01 18.9217 101.981 18.3387 102.955L17.7878 103.84L17.1975 104.841L16.8873 105.329L16 107L17.625 107.897L18 108.041L19.375 108.585L21 109L21.9722 107.329L22.3063 106.841L22.9298 105.84L23.5 104.955L24.6551 102.995C25.7078 101.076 26.5733 99.0631 27.3009 97C27.9892 95.0486 28.569 93.0597 28.8156 91C28.9745 89.673 28.9767 88.3384 28.956 87.0046L28.909 86.0247L28.7106 84.1605L28.5216 83.159L28 81L29.115 82.0864L29.8364 83.321L30.4475 85.0586L30.6458 86.0185L30.7731 87.0046L30.7863 89L30.5316 91C30.3335 92.0091 30.1045 93.0052 29.8441 94C29.132 96.7206 28.2183 99.3883 27.1782 102L25.5 105.975L24.7546 107.84L24.4583 108.841L24.2847 109.329L24 111L25.6713 111.187L27.1605 111.465C29.1065 111.879 31.029 112.41 33 112.701C34.651 112.944 36.3187 112.98 37.9753 113.165C39.6658 113.354 41.329 113.69 43 114L43.9985 112.329L44.7469 110.84L45.5571 108.975C46.0729 107.663 46.5456 106.336 46.9961 105C47.5503 103.356 48.1192 101.699 48.4823 100L48.8194 98L49.162 94L49.4861 91.0046L49.544 89.0448L49.3657 87.159L49 85L50.017 86.6713L50.5502 88.1605L50.875 90.0247L50.9421 91.0046C50.969 92.006 50.973 92.9996 50.9097 94C50.8246 95.3454 50.6191 96.6699 50.4097 98C50.1466 99.6716 49.878 101.35 49.5 103C49.1916 104.346 48.7896 105.667 48.4244 106.998C48.075 108.272 47.7493 109.55 47.4653 110.84L47.1867 112.329L47 114L48.6713 113.958L50.1605 113.829C51.1108 113.709 52.0503 113.555 52.9892 113.366L54.8951 112.852L56.6065 112.012C57.7003 111.244 58.5149 110.143 59.081 108.941L59.9059 106.995C60.2509 106.004 60.5592 105.01 60.8449 104L61.3704 102L61.8696 100C62.2593 98.3435 62.6449 96.6955 62.8264 95C62.9682 93.6757 63.0047 92.3312 62.9923 91L62.9097 88.0247L62.7106 86.1605L62.5216 85.159L62 83L63.115 84.0864L63.8356 85.321L64.4367 87.0586L64.6211 88.0185L64.723 89.0046L64.6744 91L64.284 94L64.0748 96L63.8194 99L63.4823 101C62.9031 103.695 61.8249 106.25 60.9074 108.84L60.4136 110.329L60 112L62.1042 111.41L63.027 110.971L64.5116 109.682L65.6983 107.941L66.5208 105.995L67.7199 102L68.9606 98.0046L69.24 97.0247L69.6736 95.1605L69.8981 93.6713L70 92L70.5841 93.6713L70.8248 95.1605C70.9032 96.4427 70.9012 97.7309 70.6721 99L70.2554 100.975L69.7508 102.84L69.4938 103.841L69.3534 104.329L69 106L70.6289 105.346L71.9722 104.39L73.4676 102.851L74.7886 100.981L75.3549 99.9954L75.8758 98.9992L77.2539 96L77.6736 95C78.0559 94.0142 78.3911 93.0258 78.6497 92C78.8992 91.0101 79.0603 90.0034 79.2423 89C79.4824 87.6757 79.6949 86.3393 79.831 85L80.169 80C80.3035 78.6594 80.537 77.3327 80.7292 76L81.2708 72C81.5077 70.337 81.8218 68.6818 81.8958 67C81.94 65.9974 81.9151 64.9996 81.8264 64C81.7371 62.9934 81.5691 61.9968 81.409 61L81.0648 59C80.8678 57.9919 80.6847 56.9825 80.3765 56C80.053 54.9685 79.6483 53.9686 79.1605 53.0039C78.6484 51.9912 78.066 50.998 77.3619 50.1049L75.787 48.3904L74.8951 47.6381L72.9846 46.3634L70.9992 45.3279L70 44.8804C68.7225 44.3025 67.3659 43.845 66 43.5293L64 43.1813L63 43.0787L61 42.9252L60 42.8341L58 42.5756C56.6692 42.3904 55.3469 42.1621 54 42.1289L52 42.1844L51 42.2894L49 42.5764L47 42.8449L46 42.9498L43 43.2824C41.6622 43.4636 40.3306 43.6965 39 43.9236C37.9956 44.0951 36.9892 44.2661 36 44.5139C33.9432 45.029 31.9515 45.7935 30 46.6157C28.9841 47.0438 27.9884 47.4955 27.0008 47.9853L26.0039 48.5293L24.0401 49.8002L23.0934 50.5324L21.3287 52.1852C19.9671 53.628 18.8694 55.2888 17.8796 57.0008C17.1341 58.2904 16.4644 59.63 15.8796 61C15.4615 61.9796 15.0837 62.9761 14.7878 64L14.314 66L13.7145 70C13.5548 71.0085 13.334 72.0031 13.1157 73L12.8843 74C12.6694 74.9985 12.4517 75.9918 12.2855 77L11.7292 81L11.4244 83L11.1551 85L10.8302 88L10.4877 90L10.2585 91C9.95631 92.326 9.57696 93.6342 9.49537 95L9.53704 97L9.67438 97.9992L9.87731 98.9954L10.152 99.9799L10.9877 101.833L11.5849 102.623L12.2986 103.248L13.9545 103.793L15.625 103.248L16.3881 102.623L17.0841 101.833L17.7284 100.937L18.8758 98.9954L19.3904 97.9992L20.3194 96L21.0841 94L21.3873 93L21.7894 91C21.975 89.68 21.9597 88.3524 21.9059 87.0247L21.7106 85.1605L21.5216 84.159L21 82z"
     id="path5" />
  <path
     style="fill:#121212; stroke:none;"
     d="M48 46.439C46.9969 46.5969 45.9905 46.7916 45 47.0147C43.9933 47.2414 42.9959 47.4787 42 47.75L40.0046 48.402L38.0586 49.2785L36.3179 50.51L35.0316 52.1335L34.6188 53.054L34.2569 54.9892L34.287 55.9568L34.4529 56.8912L34.7469 57.7716L35.1798 58.5664L36.4336 59.821L38.1088 60.5664L39.044 60.7716L40.0154 60.8912L42.0008 60.9846L44 60.9992L47 60.9992C49.0007 60.9896 51.0218 61.019 53 60.6713L55 60.2106L56.9961 59.517L58.956 58.5826L59.8912 58.0054L60.7716 57.3511L62.2539 55.7863L63.2137 53.9606L63.4576 53L63.5432 52.0401L63.2137 50.2245L62.2539 48.7029L60.7716 47.5725L59.8912 47.1481L57.9846 46.5332C56.6935 46.2093 55.3291 46.0677 54 46.044C52.9984 46.0261 52.0003 46.0257 51 46.0903C49.9927 46.1553 48.9967 46.2822 48 46.439z"
     id="path6" />
  <path
     style="fill:#fafafa; stroke:none;"
     d="M36 57L37.6713 57.277L39.1605 57.1613L41.0231 56.5849L44.8395 54.8789L46.3287 54.3727L48 54L46.375 55.0895L45 55.9205L44.625 56.152L43 57L44.0864 57.5849L44.517 57.642L45.321 57.8395C46.5413 57.9816 47.7778 57.9939 49.0046 57.9931C51.3477 57.9915 53.7489 57.9268 55.9846 57.1458L57.8904 56.3117L58.7677 55.7716L59.5517 55.1474L60.7307 53.6844L61.2762 52.0664L61.2955 51.1188L61.314 50.6559L61 49L59.3287 48.8171L58.841 48.7245L57.8395 48.5748L56.9552 48.4259C55.9715 48.2904 54.9931 48.1536 53.9985 48.1289L52 48.1844L51 48.2894L49 48.5795L47 48.8704L46 49.0039L44 49.3148L43.0008 49.5293L41.0193 50.1481L39.1481 51.088L37.6034 52.3943L36.6042 53.9475L36.3148 54.885L36 57z"
     id="path7" />
  <path
     style="fill:#121212; stroke:none;"
     d="M50.3333 53.6667L50.3333 54.3333L50.6667 54.3333L50.6667 53.6667L50.3333 53.6667M68 57L68 59L70 59L70 57L68 57M27 64L27.909 65.0108L28.3472 65.1944L30 66L29.6389 64.8611L29.3333 64.6667L28.3889 64.1111L27 64M61 64L61 66L63 66L62 64L61 64M44 69L45.625 68.8974L47 68.6412L47.375 68.5849L49 68L47.9336 67.0432L47.5417 66.9792L46.8279 66.7431L45.5517 66.9931L44.6497 67.6898L44 69M36 67L36 69L38 69L38 67L36 67z"
     id="path8" />
</svg>
